/* XPM */
static char *result[] = {
/* columns rows colors chars-per-pixel */
"32 32 19 1 ",
"  c #302C2E",
". c #474142",
"X c #4C4646",
"o c #534C4D",
"O c #5A5353",
"+ c #5B5254",
"@ c #595455",
"# c #5D5555",
"$ c #63595A",
"% c #6B6161",
"& c #686162",
"* c #726867",
"= c #746869",
"- c #746969",
"; c #78706F",
": c #7A706E",
"> c #747173",
", c #8B7F7C",
"< c white",
/* pixels */
"<>                            ><",
">&%:::::::::::::::::::::::::::;>",
" +-::::::::::::::::::::::::::,* ",
" XX                          $$ ",
" XX OOOOOOOOOOOOOOOOOOOOOOOO $$ ",
" XX O..OOOOOOOOOOOOOOOOOO..O $$ ",
" XX O..OOOOOOOOOOOOOOOOOO..O $$ ",
" XX OOOOOOOOOOOOOOOOOOOOOOOO $$ ",
" XX OOOOOOOOOOOOOOOOOOOOOOOO $$ ",
" XX OOOOOOOOOOOOOOOOOOOOOOOO $$ ",
" XX OOOOOOOOOOOOOOOOOOOOOOOO $$ ",
" XX OOOOOOOOOOOOOOOOOOOOOOOO $$ ",
" XX OOOOOOOOOOOOOOOOOOOOOOOO $$ ",
" XX OOOOOOOOOOOOOOOOOOOOOOOO $$ ",
" XX OOOOOOOOOOOOOOOOOOOOOOOO $$ ",
" XX OOOOOOOOOOOOOOOOOOOOOOOO $$ ",
" XX OOOOOOOOOOOOOOOOOOOOOOOO $$ ",
" XX OOOOOOOOOOOOOOOOOOOOOOOO $$ ",
" XX OOOOOOOOOOOOOOOOOOOOOOOO $$ ",
" XX OOOOOOOOOOOOOOOOOOOOOOOO $$ ",
" XX OOOOOOOOOOOOOOOOOOOOOOOO $$ ",
" XX OOOOOOOOOOOOOOOOOOOOOOOO $$ ",
" XX OOOOOOOOOOOOOOOOOOOOOOOO $$ ",
" XX OOOOOOOOOOOOOOOOOOOOOOOO $$ ",
" XX OOOOOOOOOOOOOOOOOOOOOOOO $$ ",
" XX O..OOOOOOOOOOOOOOOOOO..O $$ ",
" XX O..OOOOOOOOOOOOOOOOOO..O $$ ",
" XX OOOOOOOOOOOOOOOOOOOOOOOO $$ ",
" XX                          $$ ",
" X#$$$$$$$$$$$$$$$$$$$$$$$$$$=$ ",
">@o$$$$$$$$$$$$$$$$$$$$$$$$$$$&>",
"<>                            ><"
};
