/* XPM */
static char *result[] = {
/* columns rows colors chars-per-pixel */
"32 32 7 1 ",
"  c #231E2B",
". c #C2751D",
"X c #CF8934",
"o c #E2B436",
"O c #F5F38E",
"+ c #F7FEFF",
"@ c None",
/* ps */
"@@@@@@@@@@@@++++++++@@@@@@@@@@@@",
"@@@@@@@@@@@@++++++++@@@@@@@@@@@@",
"@@@@@@@@++++        ++++@@@@@@@@",
"@@@@@@@@++++        ++++@@@@@@@@",
"@@@@@@++    ooooOOOO    ++@@@@@@",
"@@@@@@++    ooooOOOO    ++@@@@@@",
"@@@@++  ooooooooooooOOOO  ++@@@@",
"@@@@++  ooooooooooooOOOO  ++@@@@",
"@@++  ooooooXXXX....ooooOO  ++@@",
"@@++  ooooooXXXX....ooooOO  ++@@",
"@@++  ooooXXXXXXXXXX..oooo  ++@@",
"@@++  ooooXXXXXXXXXX..oooo  ++@@",
"++  ooooXXXXXXooOOXXXX..oooo  ++",
"++  ooooXXXXXXooOOXXXX..oooo  ++",
"++  ooooXXXXooooooOOXXXXoooo  ++",
"++  ooooXXXXooooooOOXXXXoooo  ++",
"++  ooooXXXXooooooooXXXXoooo  ++",
"++  ooooXXXXooooooooXXXXoooo  ++",
"++  ooooXXXX..ooooXXXXXXoooo  ++",
"++  ooooXXXX..ooooXXXXXXoooo  ++",
"@@++  ooOOXXXX..XXXXXXoooo  ++@@",
"@@++  ooOOXXXX..XXXXXXoooo  ++@@",
"@@++  ooooOOXXXXXXXXoooooo  ++@@",
"@@++  ooooOOXXXXXXXXoooooo  ++@@",
"@@@@++  ooooOOOOoooooooo  ++@@@@",
"@@@@++  ooooOOOOoooooooo  ++@@@@",
"@@@@@@++    oooooooo    ++@@@@@@",
"@@@@@@++    oooooooo    ++@@@@@@",
"@@@@@@@@++++        ++++@@@@@@@@",
"@@@@@@@@++++        ++++@@@@@@@@",
"@@@@@@@@@@@@++++++++@@@@@@@@@@@@",
"@@@@@@@@@@@@++++++++@@@@@@@@@@@@"
};
