/* XPM */
static char *result[] = {
/* columns rows colors chars-per-pixel */
"32 32 55 1 ",
"  c #1F0B11",
". c #1C0912",
"X c #1F0D16",
"o c #3B1C0F",
"O c #3C1D0F",
"+ c #271011",
"@ c #281011",
"# c #23111A",
"$ c #4A260E",
"% c #4B270E",
"& c #4F290D",
"* c #502A0D",
"= c #512B0D",
"- c #522B0D",
"; c #572E0D",
": c #5A300D",
"> c #60340C",
", c #61350C",
"< c #65370C",
"1 c #74410A",
"2 c #7E470A",
"3 c #824A09",
"4 c #874D09",
"5 c #9D5A07",
"6 c #985708",
"7 c #985808",
"8 c #A15D07",
"9 c #A45F07",
"0 c #A66106",
"q c #AA6306",
"w c #B16706",
"e c #BE6F05",
"r c #C17104",
"t c #C47304",
"y c #C87604",
"u c #CF7A03",
"i c #CB7804",
"p c #D07B03",
"a c #D37D03",
"s c #DB8202",
"d c #E38702",
"f c #E68901",
"g c #E48802",
"h c #EB8C01",
"j c #ED8D01",
"k c #F49200",
"l c #F79400",
"z c #FB9600",
"x c #FC9700",
"c c #FF9800",
"v c #FE9900",
"b c #FF9900",
"n c #959595",
"m c gray59",
"M c gray75",
/* ps */
"mmmnmmnmmnmnnmnnmmmnmmnmmnmnnmnn",
"mMmmnnmmmnmmnnmmmnmmnnmmmnmmnmMm",
"mmmmmmmmmmmnnnmmmmmmmmmmmmmnnmmm",
"nmn#XXXXXXXXXXXXXXXXXXXXXXXX#mnn",
"mnnX........................Xmmm",
"mnmX........................Xnnm",
"nmnX.........+;69<&.........Xnmn",
"mnmX.......@2fbbbbxro.......Xnmn",
"mmmX.......ebbp84ykbj%......Xmnm",
"nnmX......1xk> ...=abi@.....Xnmm",
"mmmX.....+gb0......:bb,.....Xmmm",
"nmnX.....*bko...... tb5.....Xmnn",
"nnnX.....*bu........3b5.....Xnnn",
"mnnX.....*bu........3b5.....Xnmm",
"nmnX.....*bu........3bq.....Xnmn",
"nnnX....$dblsssssssshbzw....Xnnn",
"mnmX....-bbvbbbbbbbbbbbh....Xmnm",
"mmmX....-bbbbbvbbbbbcbbh....Xmmm",
"mmmX....-bbbbbbbbbbbvbbh....Xmmm",
"nmnX....-bbbbbbbbbbbbbbh....Xmnn",
"mmmX....-bbbbbbbbbvbbbbh....Xmmm",
"mnmX....-bbbbbbbbbbbbvbh....Xnnm",
"nmnX....-bbbbbbbbbbvbbbh....Xnmn",
"mmmX....-bvbbbbbbbvbbbbh....Xmmm",
"mnmX....-bbvbbbbvbbbvbbh....Xmnm",
"nnmX....O999999999999997....Xnnn",
"mmmX........................Xmmm",
"nmnX........................Xmnn",
"nnn#XXXXXXXXXXXXXXXXXXXXXXXX#nnn",
"mmmmmnmmmnnmmnmmmnnmmnmmmnnmmmmm",
"nMmnmnmnnmnnnnmnnmnnmnmnnmnnnmMn",
"nmnnnmnnnmnnnmnnnmnnnmnnnmnnnmnn"
};
