/* XPM */
static char *result[] = {
/* columns rows colors chars-per-pixel */
"32 32 5 1 ",
"  c #0B0A07",
". c #505050",
"X c #FDA03B",
"o c white",
"O c None",
/* pixels */
"OOOOOOOOOOOOOOOOOOOOOOOOOOOOOOOO",
"OOOOOOOOOOOOOOOOOOOOOOOOOOOOOOOO",
"OOOOOOOOOOOOOOOOOOOOOOOOOOOOOOOO",
"OOOOOOOOOOOOOOOOOOOOOOOOOOOOOOOO",
"OOOOOOOOOOOOOOOOOOOOOOOOOOOOOOOO",
"OOOOOOOOOOOOOOOOOOOOOOOOOOOOOOOO",
"OOOOOOOOOOOOOOOOOOOOOOOOOOOOOOOO",
"OOOOOOOOOOOOOOOOOOOOOOOOOOOOOOOO",
"OOOOOOOOOOOOOOOOOOOOOOOOOOOOOOOO",
"OOOOOOOOOOOOOOO       OOOOOOOOOO",
"OOOOOOOOOOOOO   ...... OOOOOOOOO",
"OOOOOOOOOOOO  ........ OOOOOOOOO",
"OOOOOOOOOOO  .....ooooo OOOOOOOO",
"OOOOOOOOOO  ......oooooo OOOOOOO",
"OOOOOOOOOO ......ooooooo OOOOOOO",
"OOOOOOOOO ......ooo  ooXX OOOOOO",
"OOOOOOOOO ......ooo  oXXXX OOOOO",
"OOOOOOOOO .....oooo  oXXXXX OOOO",
"OOOOOOOO ......oooo  oXXXX OOOOO",
"OOOOOOOO ...   ooooooooXX OOOOOO",
"OOOOOOOO .. ... oooooooo OOOOOOO",
"OOOOOOOO . ..... ooooooo OOOOOOO",
"OOOOOOOO . ..... ooooooo OOOOOOO",
"OOOOOOOO . .... oooooooo OOOOOOO",
"OOOOOOOO .. ... oooooooo OOOOOOO",
"OOOOOOOO .. ... oooooooo OOOOOOO",
"OOOOOOOO ... .     oooo OOOOOOOO",
"OOOOOOOO ....  XXX  oo  OOOOOOOO",
"OOOOOOOO ... XXXXXXX   OOOOOOOOO",
"OOOOOOOOO    XXXXXXXX OOOOOOOOOO",
"OOOOOOOOOOOO XXXXXXXX OOOOOOOOOO",
"OOOOOOOOOOOOO        OOOOOOOOOOO"
};
