/* XPM */
static char *result[] = {
/* columns rows colors chars-per-pixel */
"32 32 132 2 ",
"   c white",
".  c #747173",
"X  c #302C2E",
"o  c #5C5A5B",
"O  c #A1A0A1",
"+  c #F2F1F2",
"@  c #D8D7D8",
"#  c #686162",
"$  c #6B6161",
"%  c #7A706E",
"&  c #978F8D",
"*  c #C3BFBD",
"=  c #F6F6F6",
"-  c #E6E4E4",
";  c #78706F",
":  c #5B5254",
">  c #746969",
",  c #919696",
"<  c #A6C2C6",
"1  c #B7F3FD",
"2  c #B7EEF8",
"3  c #B6E5ED",
"4  c #8B7F7C",
"5  c #726867",
"6  c #6C1F21",
"7  c #982828",
"8  c #A72222",
"9  c #9F1415",
"0  c #A11415",
"q  c #951617",
"w  c #941718",
"e  c #983F44",
"r  c #926570",
"t  c #6E93A9",
"y  c #5EA4BC",
"u  c #52B1CB",
"i  c #5AA9C1",
"p  c #55AEC7",
"a  c #669CB3",
"s  c #61A2B9",
"d  c #62A0B8",
"f  c #50B3CD",
"g  c #4CB7D2",
"h  c #51B2CC",
"j  c #5AB0C8",
"k  c #65B9CF",
"l  c #482729",
"z  c #4B2628",
"x  c #4F2627",
"c  c #462829",
"v  c #6F5253",
"b  c #6C5455",
"n  c #382A2C",
"m  c #F10303",
"M  c #FC0101",
"N  c #FE0000",
"B  c red",
"V  c #FE0101",
"C  c #FD0202",
"Z  c #FE0102",
"A  c #FC0304",
"S  c #FB0405",
"D  c #F90303",
"F  c #F70404",
"G  c #F40606",
"H  c #F30606",
"J  c #F60505",
"K  c #F40202",
"L  c #BD0E0F",
"P  c #DE0D0D",
"I  c #E40B0B",
"U  c #D20A0A",
"Y  c #DD1111",
"T  c #CE1111",
"R  c #D60E0E",
"E  c #E01010",
"W  c #E60D0D",
"Q  c #EF0E0F",
"!  c #F10F11",
"~  c #F30C0E",
"^  c #F70809",
"/  c #F90607",
"(  c #FA0506",
")  c #FC0303",
"_  c #FD0303",
"`  c #492728",
"'  c #623D3D",
"]  c #41282A",
"[  c #674C4C",
"{  c #553C3D",
"}  c #654D4D",
"|  c #6B4A4A",
" . c #856E74",
".. c #85818E",
"X. c #6697AE",
"o. c #76879C",
"O. c #798599",
"+. c #837A8D",
"@. c #887587",
"#. c #8A7385",
"$. c #85798B",
"%. c #897486",
"&. c #7E7F93",
"*. c #877688",
"=. c #927282",
"-. c #9C7583",
";. c #A42E2E",
":. c #A22121",
">. c #A61F20",
",. c #BC2222",
"<. c #AD1112",
"1. c #C02424",
"2. c #B12C2D",
"3. c #911719",
"4. c #4C4646",
"5. c #5A5353",
"6. c #668991",
"7. c #53B6C9",
"8. c #22DAFB",
"9. c #2EDAF9",
"0. c #46DBF6",
"q. c #63595A",
"w. c #4B7079",
"e. c #46AABD",
"r. c #2DD9F9",
"t. c #45D9F5",
"y. c #5D5555",
"u. c #6C8D95",
"i. c #56B8CB",
"p. c #746869",
"a. c #595455",
"s. c #534C4D",
/* pixels */
"  . X X X X X X X o O                       + @ X X X X X X .   ",
". # $ % % % % % % & *                       = - % % % % % % ; . ",
"X : > % % % % % % , < 1 1 1 1 1 1 1 1 1 1 1 2 3 % % % % % 4 5 X ",
"6 7 8 9 0 0 q w w e r t y u i p a s d f g h j k l l z x c v b n ",
"m M N N B N N N V V C C C Z C C Z V Z Z C A A S D F G H m G J K ",
"B B B B B B B B B B B B B B B B B B B B B B B B B B B B B B B B ",
"B B B B B B B B B B B B B B B B B B B B B B B B B B B B B B B B ",
"B B B B B B B B B B B B B B B B B B B B B B B B B B B B B B B B ",
"B B B B B B B B B B B B B B B B B B B B B B B B B B B B B B B B ",
"B B B B B B B B B B B B B B B B B B B B B B B B B B B B B B B B ",
"B B B B B B B B B B B B B B B B B B B B B B B B B B B B B B B B ",
"B B B B B B B B B B B B B B B B B B B B B B B B B B B B B B B B ",
"B B B B B B B B B B B B B B B B B B B B B B B B B B B B B B B B ",
"B B B B B B B B B B B B B B B B B B B B B B B B B B B B B B B B ",
"B B B B B B B B B B B B B B B B B B B B B B B B B B B B B B B B ",
"B B B B B B B B B B B B B B B B B B B B B B B B B B B B B B B B ",
"B B B B B B B B B B B B B B B B B B B B B B B B B B B B B B B B ",
"B B B B B B B B B B B B B B B B B B B B B B B B B B B B B B B B ",
"B B B B B B B B B B B B B B B B B B B B B B B B B B B B B B B B ",
"B B B B B B B B B B B B B B B B B B B B B B B B B B B B B B B B ",
"B B B B B B B B B B B B B B B B B B B B B B B B B B B B B B B B ",
"B B B B B B B B B B B B B B B B B B B B B B B B B B B B B B B B ",
"B B B B B B B B B B B B B B B B B B B B B B B B B B B B B B B B ",
"B B B B B B B B B B B B B B B B B B B B B B B B B B B B B B B B ",
"B B B B B B B B B B B B B B B B B B B B B B B B B B B B B B B B ",
"L P I U Y T R E W Q ! ~ ^ / / S S ( S S S ) _ _ N B B B B B B N ",
"` ' ' ] [ { { } |  ...X.o.O.+.@.#.$.#.%.&.*.=.-.;.:.>.,.<.1.2.3.",
"X 4.4.X 5.5.5.5.5.6.7.8.8.8.8.8.8.8.8.8.8.8.9.0.5.5.5.5.X q.q.X ",
"X 4.4.X X X X X X w.e.8.8.8.8.8.8.8.8.8.8.8.r.t.X X X X X q.q.X ",
"X 4.y.q.q.q.q.q.q.u.i.8.8.8.8.8.8.8.8.8.8.8.9.0.q.q.q.q.q.p.q.X ",
". a.s.q.q.q.q.q.q.u.i.8.8.8.8.8.8.8.8.8.8.8.9.0.q.q.q.q.q.q.# . ",
"  . X X X X X X X w.e.8.8.8.8.8.8.8.8.8.8.8.r.t.X X X X X X .   "
};
