/* XPM */
static char *_fc6acf08bd74bcac9a50cdde293dca7FJGURkKtSLeuPIMq[] = {
/* columns rows colors chars-per-pixel */
"32 32 109 2 ",
"   c None",
".  c #180E0E",
"X  c #41280B",
"o  c #42280B",
"O  c #452A0B",
"+  c #4D450B",
"@  c #4D460B",
"#  c #524A0A",
"$  c #524A0B",
"%  c #524A1A",
"&  c #6A4108",
"*  c #735908",
"=  c #7D7208",
"-  c #524A3A",
";  c #735938",
":  c #7D7138",
">  c #4D4545",
",  c #4D4646",
"<  c #524A4A",
"1  c #7D7167",
"2  c #845206",
"3  c #9F6304",
"4  c #B47003",
"5  c #B77803",
"6  c #B77812",
"7  c #A39F06",
"8  c #D98700",
"9  c #DD8A01",
"0  c #DF8B00",
"q  c #D98D10",
"w  c #E28D00",
"e  c #E29300",
"r  c #EC9300",
"t  c #F29700",
"y  c #F59900",
"u  c #FC9D00",
"i  c #FF9F00",
"p  c #F59F10",
"a  c #D0B803",
"s  c #E7A201",
"d  c orange",
"f  c #F5AB00",
"g  c #FFB100",
"h  c #FFB700",
"j  c #F1BA01",
"k  c #FFA510",
"l  c #FFB710",
"z  c #D99930",
"x  c #E29F30",
"c  c #E7A231",
"v  c #F2A930",
"b  c #FCAF30",
"n  c #FFB130",
"m  c #FFB730",
"M  c #F1BA31",
"N  c #C5C303",
"B  c #C5C304",
"V  c #D4C003",
"C  c #D4C012",
"Z  c #D4C013",
"A  c #FCD300",
"S  c #FFD500",
"D  c #FFC910",
"F  c #FFE700",
"G  c #FFED10",
"H  c #C5C333",
"J  c #FFC930",
"K  c #FFE730",
"L  c #FFED30",
"P  c #FFF930",
"I  c #E2B15F",
"U  c #E2B160",
"Y  c #E2B76F",
"T  c #F1BA61",
"R  c #FCC15F",
"E  c #FFC35F",
"W  c #FFC95F",
"Q  c #FFF95F",
"!  c #FCC160",
"~  c #FFC360",
"^  c #FFC960",
"/  c #FFC96F",
"(  c #FFC970",
")  c #FFF960",
"_  c #FFFF6F",
"`  c #FFFF70",
"'  c #A39F9F",
"]  c #D0B892",
"[  c #C5C393",
"{  c #D4C092",
"}  c #F2CD8F",
"|  c #F5CF8F",
" . c #FFD58F",
".. c #FFD590",
"X. c #F5D59F",
"o. c #FFDB9F",
"O. c #FFE78F",
"+. c #FFE790",
"@. c #FFED90",
"#. c #FFED9F",
"$. c #FFF990",
"%. c #D4C0A2",
"&. c #C5C3C3",
"*. c #F5E7CF",
"=. c #FFEDCF",
"-. c #FFFFCF",
";. c #FCF7EF",
":. c #FFF9EF",
">. c #FFFFEF",
/* pixels */
"                        . . . . . . . .                         ",
"                        @ # # # # # # @                         ",
"                . . . @ 7 N N N N N N 7 @ . . .                 ",
"                @ # # = V F F F F F F Z : < < ,                 ",
"            . @ 7 N N V j h h h h h h M { &.&.' , .             ",
"            @ = V F F S g i i i i k n ( =.:.=.%.1 ,             ",
"        . @ 7 V j h h g d i i i i n ..=.:.=./ T %.' , .         ",
"        @ = V S g i i i i d g l m ( =.:.=.o.~ ~ o.] ; o         ",
"    . @ 7 V j g d i i i i g S K +.=.:.=./ ~ o.o.E c 6 2 X .     ",
"    . # N F h i i i i d g D L ` -.;.*.X.! ~ o. .n t 8 3 O .     ",
"    . # N F h i i i i g S L $.-.>.*.Y U X.o.E n k t 8 3 O .     ",
"    . # N F h i i d g D L ` -.:.=.X.U U X. .n i i t 8 3 O .     ",
"    . # N F h i i g S L $.-.>.=./ ! X.X.E n k i i t 8 3 O .     ",
"    . # N F h i i l K ` -.:.=.o.~ ! X.} b i i i i t 8 3 O .     ",
"    . # N F h i i m +.-.>.=./ ~ o.X.I x p i i i i t 8 3 O .     ",
"    . # N F h k n ( =.>.-.#.^ ~ o.} z 8 t i i i i t 8 3 O .     ",
"    . # N F h n ..=.:.-._ ) #.o.E v q 8 t i i i i t 8 3 o .     ",
"    . # N G J ( =.:.=.#.) ) #. .n t 8 8 t i i i i t 8 3 O .     ",
"    . # N P @.=.:.=./ ^ #.#.W n k t 8 8 t i i i i t 8 3 O .     ",
"    . % H ` -.:.=.o.~ ^ #.O.m i i t 8 8 t i i i i t 8 3 O .     ",
"    . - [ -.>.=./ ~ o.#.) K l i i t 8 8 t i i i i t 8 3 O .     ",
"    . < &.:.=.o.~ ~ o.O.K A f t t r 0 w y i i i i t 8 3 O .     ",
"    . < &.=./ ~ o.o.E m l f e 8 8 0 r y i i i i i t 8 3 O .     ",
"    . , ' %.T ~ o. .n i i y w 8 8 w y i i i i u y 0 4 2 o .     ",
"        , 1 %.o.~ n k i i i y t t y u i i i i y w 4 & X         ",
"        . , ' ] M h h g d i i i i i i u y t t 0 4 2 X .         ",
"            , : Z F F S g i i i i i i y w 8 8 4 & X             ",
"            . # 7 B B a s t t t t t t 0 4 3 3 2 X .             ",
"                + $ $ * 5 8 8 8 8 8 8 4 & O O X                 ",
"                . . . X 2 3 3 3 3 3 3 2 X . . .                 ",
"                        X O O O O O X X                         ",
"                        . . . . . . . .                         "
};
