/* XPM */
static char *d87925738d0942c4d8fffaef8905cd89pDAFuN969aIgJrh7[] = {
/* columns rows colors chars-per-pixel */
"32 32 89 1 ",
"  c None",
". c #180E0E",
"X c #41280B",
"o c #42280B",
"O c #452A0B",
"+ c #4D450B",
"@ c #4D460B",
"# c #524A0A",
"$ c #524A1A",
"% c #6A4108",
"& c #735908",
"* c #7D7108",
"= c #524A3A",
"- c #735938",
"; c #4D4545",
": c #4D4646",
"> c #524A4A",
", c #7D7268",
"< c #7D7878",
"1 c #845206",
"2 c #9F6304",
"3 c #B47003",
"4 c #B77803",
"5 c #B77813",
"6 c #A39F06",
"7 c #CF8700",
"8 c #D98700",
"9 c #DD8A01",
"0 c #D69700",
"q c #D99F00",
"w c #E28D00",
"e c #E29F00",
"r c #F29700",
"t c #F59900",
"y c #F59F00",
"u c #FC9D00",
"i c #FF9F00",
"p c #D0B803",
"a c #E7A201",
"s c orange",
"d c #FCAF00",
"f c #E2B700",
"g c #FFB100",
"h c #FFB700",
"j c #F1BA01",
"k c #FFA510",
"l c #FFB710",
"z c #E7A231",
"x c #FFB130",
"c c #FFB730",
"v c #C5C303",
"b c #D4C003",
"n c #E9C700",
"m c #F5CF00",
"M c #FFC900",
"N c #FFD500",
"B c #F2DF00",
"V c #FFDB10",
"C c #F5E700",
"Z c #FFE700",
"A c #FFED00",
"S c #FCF700",
"D c #FFF900",
"F c #FFED10",
"G c #C5C333",
"H c #FFC330",
"J c #FFC930",
"K c #FFE730",
"L c #FFF930",
"P c #F1BA60",
"I c #FFC360",
"U c #FFC960",
"Y c #FFC96F",
"T c #FFF960",
"R c #A39F9F",
"E c #D0B892",
"W c #C5C393",
"Q c #FFD58F",
"! c #FFDB8F",
"~ c #FFDB9F",
"^ c #FFE78F",
"/ c #FFED8F",
"( c #FFED9F",
") c #D4C0A2",
"_ c #C5C3C3",
"` c #D4D2D2",
"' c #FFEDCF",
"] c #FFF9EF",
"[ c #F1F0F0",
/* pixels */
"            ........            ",
"            :>>=$$=:            ",
"          .:R__WGGWR:.          ",
"          :<`]'(TT(E-o          ",
"        .:R`['YU((Uz51o.        ",
"        .>_]'~II~Qxr82O.        ",
"        .>_'YI~~Ixkr82O.        ",
"        :,)~IU(/Jgstw3%o        ",
"      .:R)PI~(TLFNgit931o.      ",
"      .=W(UI~/LSCmdiir82O.      ",
"      .$GT(~IJFCfeyiir82O.      ",
"      .$GT(!HMABq8riir82O.      ",
"      .=W(UHVADBq8riir82O.      ",
"      .=W^cgNADBq8riir82O.      ",
"      .$GKlsgMABq8riir82O.      ",
"      .#vZhiihZBq8riir82O.      ",
"      .#vZhiihZBq8riir82O.      ",
"      .#vZhiihZBq8riir82O.      ",
"      .#vZhiihZBq8riir82O.      ",
"      .#vZhiihZBq8riir82O.      ",
"      .#vZhiihZBq8riir82O.      ",
"      .#vZhiidmn08riir82O.      ",
"      .#vZhiiye078riir82O.      ",
"      .#vZhiitw88wriir82O.      ",
"      .#vZhiiirrrtuiir82O.      ",
"      .@6bjgsiiiiiiut931o.      ",
"        @*bNgiiiiiitw3%o        ",
"        .@6parrrrrr931o.        ",
"          @&48888883%o          ",
"          .o12222221o.          ",
"            oOOOOoOo            ",
"            ........            "
};
