/* XPM */
static char *facfa2415d5c4a739c9076a679c89c4eWS2v39NBDuJs1jvW[] = {
/* columns rows colors chars-per-pixel */
"32 32 59 1 ",
"  c None",
". c #180E0E",
"X c #41280B",
"o c #42280B",
"O c #452A0B",
"+ c #482C0A",
"@ c #48320B",
"# c #4F300A",
"$ c #52320A",
"% c #673F08",
"& c #4E420B",
"* c #4D450B",
"= c #4D460B",
"- c #524A0A",
"; c #6A4108",
": c #7A5D08",
"> c #7D7208",
", c #845206",
"< c #9F6304",
"1 c #A96903",
"2 c #AA6A03",
"3 c #A87B04",
"4 c #B47003",
"5 c #BC7503",
"6 c #C17801",
"7 c #C57B03",
"8 c #CC7F00",
"9 c #A39F06",
"0 c #BCAB04",
"q c #CF8100",
"w c #CA8403",
"e c #D68500",
"r c #D98700",
"t c #DD8A01",
"y c #D49601",
"u c #D99F00",
"i c #E28D00",
"p c #E99100",
"a c #E29F00",
"s c #F29700",
"d c #F59900",
"f c #F59F00",
"g c #FC9D00",
"h c #CAB403",
"j c #E2A500",
"k c #FCAF00",
"l c #E2B700",
"z c #F5B100",
"x c #FFB700",
"c c #F1BA01",
"v c #C5C303",
"b c #D4C003",
"n c #F5CF00",
"m c #F2DF00",
"M c #F5E100",
"N c #F5E700",
"B c #FCE500",
"V c #FFE700",
"C c #FCF700",
/* pixels */
"              ....              ",
"              =--=              ",
"            .=9vv9=.            ",
"            .-vCN0&.            ",
"            .-vNl3@.            ",
"            .-vmu<O.            ",
"            .-vmu<O.            ",
"            =>bna4;o            ",
"          .=9bckft4,X.          ",
"          .-vVxgdpe<O.          ",
"          .-vVxdieq<O.          ",
"          .-vVxsr88<O.          ",
"          .-vVxsr88<O.          ",
"          .-vVxsr88<O.          ",
"          .-vVxsr88<O.          ",
"          .-vVxsr88<O.          ",
"          .-vVxsr88<O.          ",
"          .-vVxsr88<O.          ",
"          .-vVxsr88<O.          ",
"          .-vVxsr88<O.          ",
"          .-vVxsr88<O.          ",
"          .-vBzpe88<O.          ",
"          .-vMjeq88<O.          ",
"          .=9hyeq62,X.          ",
"            =:wpe2%X            ",
"            .$7sr<O.            ",
"            .$7sr<O.            ",
"            .$5pe<O.            ",
"            .O2eq<O.            ",
"            .o,<<,X.            ",
"              XOOX              ",
"              ....              "
};
