/* XPM */
static char *_7341_334129ef3d8d66603072340f7c97c3e80535994c5101061019671bad416a48b0[] = {
/* columns rows colors chars-per-pixel */
"32 32 93 2 ",
"   c #180E0E",
".  c #41280B",
"X  c #42280B",
"o  c #452A0B",
"O  c #48321A",
"+  c #4D450B",
"@  c #4D460B",
"#  c #524A0A",
"$  c #6A4108",
"%  c #735908",
"&  c #7D7108",
"*  c #7D7208",
"=  c #4E423A",
"-  c #7D7138",
";  c #4D4545",
":  c #4D4646",
">  c #524A4A",
",  c #7D7167",
"<  c #845206",
"1  c #9F6304",
"2  c #B47003",
"3  c #B77803",
"4  c #A87B33",
"5  c #A39F06",
"6  c #CF8700",
"7  c #D98700",
"8  c #DD8A01",
"9  c #D69700",
"0  c #D99F00",
"q  c #D98D10",
"w  c #E28D00",
"e  c #E29F00",
"r  c #F29700",
"t  c #F59900",
"y  c #F59F00",
"u  c #FC9D00",
"i  c #FF9F00",
"p  c #F59F10",
"a  c #D0B803",
"s  c #E7A201",
"d  c orange",
"f  c #FCAF00",
"g  c #E2B700",
"h  c #FFB100",
"j  c #FFB700",
"k  c #F1BA01",
"l  c #FFA510",
"z  c #D99930",
"x  c #E29F30",
"c  c #F2A930",
"v  c #FCAF30",
"b  c #FFB130",
"n  c #F1BA31",
"m  c #C5C303",
"M  c #D4C003",
"N  c #D4C013",
"B  c #E9C700",
"V  c #F5CF00",
"C  c #FFC900",
"Z  c #FFD500",
"A  c #F2DF00",
"S  c #F5E700",
"D  c #FFE700",
"F  c #FFED00",
"G  c #FCF700",
"H  c #FFF900",
"J  c #E2B160",
"K  c #E2B76F",
"L  c #F0BA61",
"P  c #E2B770",
"I  c #FCC160",
"U  c #FFC360",
"Y  c #FFC96F",
"T  c #FFC970",
"R  c #A29E9E",
"E  c #A39F9F",
"W  c #BBAB93",
"Q  c #BCAB93",
"!  c #D4C092",
"~  c #F2CD90",
"^  c #F5CF90",
"/  c #FFD590",
"(  c #F5D59F",
")  c #FFDB9F",
"_  c #D4C0A2",
"`  c #F5D5A0",
"'  c #FFDBA0",
"]  c #C5C3C3",
"[  c #F5E7CF",
"{  c #FFEDCF",
"}  c #FCF7EF",
"|  c #FFF9EF",
" . c None",
/* pixels */
" . . . . . . . . . . . .                 . . . . . . . . . . . .",
" . . . . . . . . . . . .@ # # # # # # @  . . . . . . . . . . . .",
" . . . . . . . . . .  @ 5 m m m m m m 5 +    . . . . . . . . . .",
" . . . . . . . . . .@ * M D D D D D D a % X  . . . . . . . . . .",
" . . . . . . . .  @ 5 M k j j j j j j s 3 < .    . . . . . . . .",
" . . . . . . . .  # m D j i i i i i i r 7 1 o    . . . . . . . .",
" . . . . . . . .  # m D j i i i i i i r 7 1 o    . . . . . . . .",
" . . . . . . . .@ * M Z h d h j j h d t w 2 $ X  . . . . . . . .",
" . . . . . .  @ 5 M k h d h Z D D Z h u t 8 2 < .    . . . . . .",
" . . . . . .  # m D j i i j D G S V f i i r 7 1 o    . . . . . .",
" . . . . . .  # m D j i i j D S g e y i i r 7 1 o    . . . . . .",
" . . . . . .  # m D j d h C F A 0 7 r i i r 7 1 o    . . . . . .",
" . . . . . .  # m D j h Z F H A 0 7 r i i r 7 1 o    . . . . . .",
" . . . . . .  # m D j h Z F H A 0 7 r i i r 7 1 o    . . . . . .",
" . . . . . .  # m D j d h C F A 0 7 r i i r 7 1 o    . . . . . .",
" . . . . . .  # m D j i i j D A 0 7 r i i r 7 1 o    . . . . . .",
" . . . . . .  # m D j i i j D A 0 7 r i i r 7 1 o    . . . . . .",
" . . . . . .  # m D j i i j D A 0 7 r i i p x 4 O    . . . . . .",
" . . . . . .  # m D j i i j D A 0 7 r i i v ^ Q =    . . . . . .",
" . . . . . .  # m D j i i j D A 0 7 r l b T { ] >    . . . . . .",
" . . . . . .  # m D j i i j D A 0 7 r b / { | ] >    . . . . . .",
" . . . . . .  # m D j i i f V B 9 q c T { } [ Q =    . . . . . .",
" . . . . . .  # m D j i i y e 9 6 z ~ { | [ K 4 O    . . . . . .",
" . . . . . .  # m D j i i t w q z P [ | { ( J 4 O    . . . . . .",
" . . . . . .  # m D j i i u t c ~ [ } { Y I ` Q =    . . . . . .",
" . . . . . .  @ 5 M k h d l b T { | { ) U L _ R ;    . . . . . .",
" . . . . . . . .+ & M Z h b / { | { Y U ' _ , ;  . . . . . . . .",
" . . . . . . . .  @ 5 N n T { } [ ( I L _ R ;    . . . . . . . .",
" . . . . . . . . . .+ - ! { | [ K J ` _ , ;  . . . . . . . . . .",
" . . . . . . . . . .  : E ] ] W 4 4 Q R ;    . . . . . . . . . .",
" . . . . . . . . . . . .; > > = O O = ;  . . . . . . . . . . . .",
" . . . . . . . . . . . .                 . . . . . . . . . . . ."
};
