/* XPM */
static char *_8777_2465c98d2c003cd4f55034f450a5dfdb0d177e154046bcbf14bf8e0b5fb9bfcd[] = {
/* columns rows colors chars-per-pixel */
"32 32 118 2 ",
"   c #180E0E",
".  c #41280B",
"X  c #42280B",
"o  c #452A0B",
"O  c #4D2F0B",
"+  c #48321A",
"@  c #4D450B",
"#  c #4D460B",
"$  c #524A0A",
"%  c #524A1A",
"&  c #6A4108",
"*  c #734708",
"=  c #7D5F08",
"-  c #7D7208",
";  c #4E423A",
":  c #524A3A",
">  c #735937",
",  c #7D7138",
"<  c #4D4545",
"1  c #4D4646",
"2  c #735F48",
"3  c #7D7747",
"4  c #845206",
"5  c #9F6304",
"6  c #A36506",
"7  c #B47003",
"8  c #B77203",
"9  c #B77812",
"0  c #A87B33",
"q  c #A39F06",
"w  c #D08203",
"e  c #D98700",
"r  c #D48A03",
"t  c #DD8A01",
"y  c #D98D10",
"u  c #E28D00",
"i  c #E29300",
"p  c #E79001",
"a  c #F29700",
"s  c #F59900",
"d  c #FC9D00",
"f  c #FF9F00",
"g  c #F59F10",
"h  c #D4BA03",
"j  c orange",
"k  c #F1A801",
"l  c #F5AB00",
"z  c #FFB100",
"x  c #FFB700",
"c  c #F1BA01",
"v  c #FFA510",
"b  c #FFB710",
"n  c #D99930",
"m  c #E29F30",
"M  c #E7A231",
"N  c #F2A930",
"B  c #FCAF30",
"V  c #FFB130",
"C  c #FFB730",
"Z  c #F1BA31",
"A  c #C5C303",
"S  c #D4C003",
"D  c #D4C013",
"F  c #FFC300",
"G  c #FCD300",
"H  c #FFD500",
"J  c #FFDB00",
"K  c #FFE700",
"L  c #FFED10",
"P  c #C5C333",
"I  c #FFC930",
"U  c #FFE730",
"Y  c #FFF930",
"T  c #B78A42",
"R  c #E2B15F",
"E  c #E2B160",
"W  c #E2B76F",
"Q  c #E2B770",
"!  c #D4D242",
"~  c #FCC15F",
"^  c #FFC35F",
"/  c #FCC160",
"(  c #FFC360",
")  c #FFC960",
"_  c #FFC96F",
"`  c #FFC970",
"'  c #FFF960",
"]  c #FFFF70",
"[  c #A39F9F",
"{  c #BBAB93",
"}  c #BCAB93",
"|  c #D0B892",
" . c #C5C393",
".. c #D4C092",
"X. c #F2CD8F",
"o. c #FFD58F",
"O. c #F2CD90",
"+. c #F5CF90",
"@. c #FFD590",
"#. c #F5D59F",
"$. c #FFDB9F",
"%. c #FFE790",
"&. c #FFED90",
"*. c #FFED9F",
"=. c #F5D5A0",
"-. c #FFDBA0",
";. c #FFEDA0",
":. c #D1CAC2",
">. c #D4D2C2",
",. c #E7D8C0",
"<. c #F5E7CF",
"1. c #FFEDCF",
"2. c #F1F0C0",
"3. c #FFFFCF",
"4. c #FCF7EF",
"5. c #FFF9EF",
"6. c #FFFFEF",
"7. c None",
/* pixels */
"7.7.7.7.7.7.7.7.7.7.7.7.                7.7.7.7.7.7.7.7.7.7.7.7.",
"7.7.7.7.7.7.7.7.7.7.7.7.# $ $ $ $ $ $ # 7.7.7.7.7.7.7.7.7.7.7.7.",
"7.7.7.7.7.7.7.7.      # q A A A A A A q @   7.7.7.7.7.7.7.7.7.7.",
"7.7.7.7.7.7.7.7.# $ $ - S K K K K K K h = O 7.7.7.7.7.7.7.7.7.7.",
"7.7.7.7.7.7.  # q A A S c x x x x x x k r 6 O   7.7.7.7.7.7.7.7.",
"7.7.7.7.7.7.# - S K K H z f f f f f f f f w * X 7.7.7.7.7.7.7.7.",
"7.7.7.7.  # q S c x x z j f f f f f f f f p 8 4 .   7.7.7.7.7.7.",
"7.7.7.7.# - S H z f f f f j z z j f f f f g m T 2 1 7.7.7.7.7.7.",
"7.7.  # q S c z j f f f f z H H z f f f f B +.,.:.[ <   7.7.7.7.",
"7.7.  $ A K x f f f f j z F J G l s d v V ` 1.4.<.} ;   7.7.7.7.",
"7.7.  $ A K x f f f f z H J F l i u s V @.1.5.<.W 0 +   7.7.7.7.",
"7.7.  $ A K x f f j z F J H z a e y N ` 1.5.1.#.E 0 +   7.7.7.7.",
"7.7.  $ A K x f f z H J F z j a e n O.1.5.1._ / =.} ;   7.7.7.7.",
"7.7.  $ A K x f f z H J F z j g m Q <.5.1.$.( / #.{ ;   7.7.7.7.",
"7.7.  $ A K x f f j z F J H z B +.<.4.1._ ( -.#.R 0 +   7.7.7.7.",
"7.7.  $ A K x f f f f x K L I ` 1.5.1.$.( ( $.X.n 5 o   7.7.7.7.",
"7.7.  $ A K x f f f f x K Y &.1.5.1._ ( -.$.^ N y 5 o   7.7.7.7.",
"7.7.  $ A K x f f f f b U ] 3.4.<.#./ ( $.o.V a e 5 o   7.7.7.7.",
"7.7.  $ A K x f f f f C %.3.6.<.W E =.$.^ V v a e 5 o   7.7.7.7.",
"7.7.  $ A K x f f v V ` 1.5.1.#.E E #.o.V f f a e 5 o   7.7.7.7.",
"7.7.  $ A K x f f V @.1.5.1._ / =.#.~ V v f f a e 5 o   7.7.7.7.",
"7.7.  $ A K x v V ` 1.5.1.$.( ( $.o.V f f f f a e 5 o   7.7.7.7.",
"7.7.  $ A K x V @.1.5.1._ ( -.$.^ V v f f f f a e 5 o   7.7.7.7.",
"7.7.  # q D Z ` 1.5.1.$.( ( $.o.V f f f f d s t 7 4 .   7.7.7.7.",
"7.7.7.7.@ , ..1.5.1._ ( -.$.^ V v f f f f s u 7 & . 7.7.7.7.7.7.",
"7.7.7.7.  1 [ >.2.*.) ( $.o.V f f f f d s t 7 4 .   7.7.7.7.7.7.",
"7.7.7.7.7.7.< 3 ! ' ;.$.^ V v f f f f s u 7 & . 7.7.7.7.7.7.7.7.",
"7.7.7.7.7.7.  # q P  .| M a a a a a a t 7 4 .   7.7.7.7.7.7.7.7.",
"7.7.7.7.7.7.7.7.@ % : > 9 e e e e e e 7 & . 7.7.7.7.7.7.7.7.7.7.",
"7.7.7.7.7.7.7.7.      X 4 5 5 5 5 5 5 4 .   7.7.7.7.7.7.7.7.7.7.",
"7.7.7.7.7.7.7.7.7.7.7.7.. o o o o o o . 7.7.7.7.7.7.7.7.7.7.7.7.",
"7.7.7.7.7.7.7.7.7.7.7.7.                7.7.7.7.7.7.7.7.7.7.7.7."
};
