/* XPM */
static char *_485_fba096b033f2ccafb6381cf342634331cc79035ac0acc640617f43ccff1577e0[] = {
/* columns rows colors chars-per-pixel */
"32 32 8 1 ",
"  c #482A20",
". c #4F2D25",
"X c #573327",
"o c #5A3428",
"O c #635C5A",
"+ c #A47BAB",
"@ c #B385B5",
"# c None",
/* pixels */
"################################",
"################################",
"################################",
"################################",
"################################",
"################################",
"###########@@@@@@@@@@###########",
"#########@@++++++++++@@#########",
"########@++XXXX oXXXX++@########",
"#######@+oooooo ooooooo+@#######",
"#######@+..............+@#######",
"######@+XXXXXXX oXXXXXXX+@######",
"#####@+XXXXXXXX oXXXXXXXX+@#####",
"#####@+XXXXXXXX oXXXXXXXX+@#####",
"#####@+XXXXXXXX oXXXXXXXX+@#####",
"#####@+oooooooo ooooooooo+@#####",
"#####@+..................+@#####",
"#####@+XXXXXXXX oXXXXXXXX+@#####",
"#####@+XXXXXXXX oXXXXXXXX+@#####",
"#####@+XXXXXXXX oXXXXXXXX+@#####",
"#####@+XXXXXXXX oXXXXXXXX+@#####",
"#####@+oooooooo ooooooooo+@#####",
"#####@+..................+@#####",
"#####@+XXXXXXXX oXXXXXXXX+@#####",
"#####@+XXXXXOOX oXOOXXXXX+@#####",
"#####@+XXXXOXXX oXXXOXXXX+@#####",
"#####@+XXXXXXXX oXXXXXXXX+@#####",
"#####@+oooooooo ooooooooo+@#####",
"#####@+..................+@#####",
"#####@+XXXXXXXX oXXXXXXXX+@#####",
"#####@+XXXXXXXX oXXXXXXXX+@#####",
"#####@+XXXXXXXX oXXXXXXXX+@#####"
};
