/* XPM */
static char *result[] = {
/* columns rows colors chars-per-pixel */
"32 32 6 1 ",
"  c #1C0912",
". c #1F0D16",
"X c #23111A",
"o c #959595",
"O c gray59",
"+ c gray75",
/* ps */
"OOOoOOoOOoOooOooOOOoOOoOOoOooOoo",
"O+OOooOOOoOOooOOOoOOooOOOoOOoO+O",
"OOOOOOOOOOOoooOOOOOOOOOOOOOooOOO",
"oOoX........................XOoo",
"Ooo.                        .OOO",
"OoO.                        .ooO",
"oOo.                        .oOo",
"OoO.                        .oOo",
"OOO.                        .OoO",
"ooO.                        .oOO",
"OOO.                        .OOO",
"oOo.                        .Ooo",
"ooo.                        .ooo",
"Ooo.                        .oOO",
"oOo.                        .oOo",
"ooo.                        .ooo",
"OoO.                        .OoO",
"OOO.                        .OOO",
"OOO.                        .OOO",
"oOo.                        .Ooo",
"OOO.                        .OOO",
"OoO.                        .ooO",
"oOo.                        .oOo",
"OOO.                        .OOO",
"OoO.                        .OoO",
"ooO.                        .ooo",
"OOO.                        .OOO",
"oOo.                        .Ooo",
"oooX........................Xooo",
"OOOOOoOOOooOOoOOOooOOoOOOooOOOOO",
"o+OoOoOooOooooOooOooOoOooOoooO+o",
"oOoooOoooOoooOoooOoooOoooOoooOoo"
};
