/* XPM */
static char *result[] = {
/* columns rows colors chars-per-pixel */
"32 32 12 1 ",
"  c #302C2E",
". c #5A5353",
"X c #7D7071",
"o c #A93B3B",
"O c #E6482E",
"+ c #A05B53",
"@ c #BF7958",
"# c #A0938E",
"$ c #CFC6B8",
"% c #F4CCA1",
"& c #DFF6F5",
"* c None",
/* ps */
"********************************",
"********************************",
"********************************",
"********************************",
"**********  ********************",
"********** & *******************",
"********** X&       ************",
"********** X& oooooo  **********",
"********** X& ooooooO **********",
"********** X& ooooooO **********",
"********** X&    oooO **********",
"*********  X& .## ooO **********",
"*********  X& #### oO. *********",
"******** o X& #####  # *********",
"******** o X& ##       *********",
"******** o X& # %$$%$$ *********",
"******* oo X& # %& %&  *********",
"******* o  X& # %& %&      *****",
"*******    X&   %%%%%% @@+ *****",
"********* oooo  %%   % @@+ *****",
"**********             @@+ *****",
"********** && X###### & @+ *****",
"********** && XX##$$# & @+ *****",
"***********  ..XXXXX.  @+ ******",
"*************        @@+ *******",
"************* +@  +@    ********",
"**************  **  ************",
"********************************",
"********************************",
"********************************",
"********************************",
"********************************"
};
