/* XPM */
static char *result[] = {
/* columns rows colors chars-per-pixel */
"32 32 56 1 ",
"  c #2D2B2C",
". c #2F2B2C",
"X c #2F2A2E",
"o c #2D2D2D",
"O c #2E2C2D",
"+ c #302C2B",
"@ c #312B2D",
"# c #302B2F",
"$ c #302C2D",
"% c #312D2E",
"& c #5A5152",
"* c #595353",
"= c #595355",
"- c #7B706E",
"; c #7C716F",
": c #7B7170",
"> c #7C7070",
", c #7E7070",
"< c #7C7072",
"1 c #A73B39",
"2 c #A83A39",
"3 c #AA3B39",
"4 c #A93B3A",
"5 c #AA3B3A",
"6 c #A93C39",
"7 c #AA3D3A",
"8 c #AA3C3B",
"9 c #AB3C3B",
"0 c #E5482D",
"q c #9F5A52",
"w c #A05B53",
"e c #A05C51",
"r c #A15C54",
"t c #BF7957",
"y c #BF7858",
"u c #C17858",
"i c #C07959",
"p c #C07A58",
"a c #9F928C",
"s c #A1928D",
"d c #A0938D",
"f c #A0928F",
"g c #A1948C",
"h c #A1948E",
"j c #F3CC9F",
"k c #CFC6B7",
"l c #CFC5B9",
"z c #F2CBA0",
"x c #F5CBA1",
"c c #F3CCA1",
"v c #F4CDA2",
"b c #DFF5F3",
"n c #DFF6F4",
"m c #DFF5F6",
"M c #E0F7F5",
"N c None",
/* ps */
"NNNNNNNNNNNNNNNNNNNNNNNNNNNNNNNN",
"NNNNNNNNNNNNNNNNNNNNNNNNNNNNNNNN",
"NNNNNNNNNNNNNNNNNNNNNNNNNNNNNNNN",
"NNNNNNNNNNNNNNNNNNNNNNNNNNNNNNNN",
"NNNNNNNNNNNNNNNNNNNN$$NNNNNNNNNN",
"NNNNNNNNNNNNNNNNNNN$n.NNNNNNNNNN",
"NNNNNNNNNNNN$$$$$$$n>$NNNNNNNNNN",
"NNNNNNNNNN$$545153$m<$NNNNNNNNNN",
"NNNNNNNNNN$0444446@n:$NNNNNNNNNN",
"NNNNNNNNNN$0844724$n>.NNNNNNNNNN",
"NNNNNNNNNN$0454$$$$n>$NNNNNNNNNN",
"NNNNNNNNNN$044$dd*$n-$@NNNNNNNNN",
"NNNNNNNNNO&09$dddd$n>%$NNNNNNNNN",
"NNNNNNNNN$d$$dddfs$M>$4$NNNNNNNN",
"NNNNNNNNN$$$$$$$hd$n>$5$NNNNNNNN",
"NNNNNNNNN$kljkkcOa$n>$4$NNNNNNNN",
"NNNNNNNNN$$nc$nx$d$n;X35$NNNNNNN",
"NNNNN+O$$$$nv$nc$dOn>$$4$NNNNNNN",
"NNNNNOeyu$jccczc@#$n>$$. NNNNNNN",
"NNNNN$wyy$c$$.cc$%4645$NNNNNNNNN",
"NNNNN@wit$$O$$$O$$%+$$NNNNNNNNNN",
"NNNNN$wi$n$adsddg>@nn$NNNNNNNNNN",
"NNNNN$rt$n$skkdh>>$nb$NNNNNNNNNN",
"NNNNNN#qy$$*>,:>>*=$$NNNNNNNNNNN",
"NNNNNNNoqyy.$$$$$$$NNNNNNNNNNNNN",
"NNNNNNNN$@$$pw$$tq#NNNNNNNNNNNNN",
"NNNNNNNNNNNN$+NN+$NNNNNNNNNNNNNN",
"NNNNNNNNNNNNNNNNNNNNNNNNNNNNNNNN",
"NNNNNNNNNNNNNNNNNNNNNNNNNNNNNNNN",
"NNNNNNNNNNNNNNNNNNNNNNNNNNNNNNNN",
"NNNNNNNNNNNNNNNNNNNNNNNNNNNNNNNN",
"NNNNNNNNNNNNNNNNNNNNNNNNNNNNNNNN"
};
